# xmcd
#
# Track frame offsets: 
#        182
#        27625
#        62222
#        80977
#        98377
#        122137
#        144297
#        168900
#        197932
#        220460
#        247722
#        268170
#        306267
#        331262
#
# Disc length: 4456 seconds
#
# Revision: 2
# Processed by: cddbd v1.5.2PL0 Copyright (c) Steve Scherf et al.
# Submitted via: ExactAudioCopy v0.99pb5
#
DISCID=cd11660e
DTITLE=Various Artist - Virtual Audio Project, Issue 14: Dream
DYEAR=1900
DGENRE=Electronic
TTITLE0=Synopsis - Mystical Advice
TTITLE1=Direct 2 Brain - Synthetic Dream
TTITLE2=Infinity - Unconscious
TTITLE3=J.C. Pool - Yoga
TTITLE4=L.S.D. - Sinusphere
TTITLE5=Direct 2 Brain - A Forest In The Desert
TTITLE6=Randomity - Nocturnal
TTITLE7=Dreamland - Dreamland
TTITLE8=A.R.P. - Illusion
TTITLE9=MG Atmosphere - Past, Present, Future
TTITLE10=Lens Flare - Maoa
TTITLE11=Direct 2 Brain - Soft Touch
TTITLE12=Metaphonic - Waterdream
TTITLE13=Holophonic Effects - 360° Drum
EXTD=
EXTT0=
EXTT1=
EXTT2=
EXTT3=
EXTT4=
EXTT5=
EXTT6=
EXTT7=
EXTT8=
EXTT9=
EXTT10=
EXTT11=
EXTT12=
EXTT13=
PLAYORDER=
